<svg width="370" height="90" viewBox="0 0 370 90" fill="none" xmlns="http://www.w3.org/2000/svg">
<g clip-path="url(#clip0_14_4)">
<path d="M23.1934 77.968C19.8307 77.968 17.0574 77.604 14.8734 76.876C12.7241 76.1827 11.0427 75.2467 9.82939 74.068C8.61606 72.8893 7.76672 71.5373 7.28139 70.012C6.83072 68.4867 6.60539 66.9093 6.60539 65.28V41.1C6.60539 40.6493 6.65739 40.268 6.76139 39.956C6.90006 39.644 7.09072 39.384 7.33339 39.176L14.0414 33.508C14.2147 33.3693 14.4401 33.2653 14.7174 33.196C15.0294 33.092 15.3587 33.04 15.7054 33.04H23.8694C24.7014 33.04 25.3081 33.2307 25.6894 33.612C26.0707 33.9933 26.2614 34.6 26.2614 35.432V59.144C26.2614 59.456 26.3134 59.7507 26.4174 60.028C26.5214 60.2707 26.7467 60.4613 27.0934 60.6V41.1C27.0934 40.6493 27.1454 40.268 27.2494 39.956C27.3534 39.644 27.5094 39.4013 27.7174 39.228L27.7694 39.176L34.5294 33.508C34.7027 33.3693 34.9281 33.2653 35.2054 33.196C35.4827 33.092 35.8121 33.04 36.1934 33.04H44.0974C44.9294 33.04 45.5361 33.2307 45.9174 33.612C46.2987 33.9933 46.4894 34.6 46.4894 35.432V61.172C46.4894 62.7667 46.2641 64.24 45.8134 65.592C45.3627 66.944 44.5481 68.1053 43.3694 69.076L36.6094 74.692C35.3961 75.732 33.7147 76.5293 31.5654 77.084C29.4161 77.6733 26.6254 77.968 23.1934 77.968ZM45.9694 61.172V35.432C45.9694 34.7733 45.8134 34.3053 45.5014 34.028C45.2241 33.716 44.7561 33.56 44.0974 33.56H36.1934C35.5347 33.56 35.0494 33.716 34.7374 34.028C34.4601 34.3053 34.3214 34.7733 34.3214 35.432V59.144C34.3214 59.8373 34.0614 60.4267 33.5414 60.912C33.0214 61.3627 31.8427 61.588 30.0054 61.588C28.2027 61.588 27.0414 61.3627 26.5214 60.912C26.0014 60.4267 25.7414 59.8373 25.7414 59.144V35.432C25.7414 34.7733 25.5854 34.3053 25.2734 34.028C24.9961 33.716 24.5281 33.56 23.8694 33.56H15.7054C15.0467 33.56 14.5614 33.716 14.2494 34.028C13.9721 34.3053 13.8334 34.7733 13.8334 35.432V61.172C13.8334 62.7667 14.0587 64.2227 14.5094 65.54C14.9947 66.8227 15.8267 67.932 17.0054 68.868C18.2187 69.7693 19.8654 70.48 21.9454 71C24.0254 71.52 26.6774 71.78 29.9014 71.78C33.1254 71.78 35.7774 71.52 37.8574 71C39.9374 70.48 41.5667 69.7693 42.7454 68.868C43.9587 67.932 44.7907 66.8227 45.2414 65.54C45.7267 64.2227 45.9694 62.7667 45.9694 61.172ZM19.5534 38.24H20.0734V59.924C20.0734 61.8653 20.7494 63.4427 22.1014 64.656C23.4881 65.8347 26.1054 66.424 29.9534 66.424C33.8014 66.424 36.4187 65.8347 37.8054 64.656C39.1921 63.4427 39.8854 61.8653 39.8854 59.924V38.24H40.4054V59.924C40.4054 62.004 39.6774 63.7027 38.2214 65.02C36.7654 66.3027 34.0094 66.944 29.9534 66.944C25.8974 66.944 23.1414 66.3027 21.6854 65.02C20.2641 63.7027 19.5534 62.004 19.5534 59.924V38.24ZM64.934 38.656L84.07 60.184V38.24H84.59V66.32H84.07V60.964L64.414 38.916C64.3793 38.8813 64.3273 38.8467 64.258 38.812C64.2233 38.7773 64.1886 38.76 64.154 38.76C64.1193 38.76 64.0846 38.7773 64.05 38.812C64.05 38.8467 64.05 38.8813 64.05 38.916V66.32H63.53V38.812C63.53 38.604 63.5993 38.448 63.738 38.344C63.8766 38.24 64.0153 38.188 64.154 38.188C64.2926 38.188 64.414 38.2227 64.518 38.292C64.622 38.3613 64.7606 38.4827 64.934 38.656ZM67.742 71C68.4006 71 68.8686 70.8613 69.146 70.584C69.458 70.272 69.614 69.7867 69.614 69.128V51.968L78.506 62.732V69.128C78.506 69.7867 78.6446 70.272 78.922 70.584C79.234 70.8613 79.7193 71 80.378 71H88.178C88.8366 71 89.3046 70.8613 89.582 70.584C89.894 70.272 90.05 69.7867 90.05 69.128V35.432C90.05 34.7733 89.894 34.3053 89.582 34.028C89.3046 33.716 88.8366 33.56 88.178 33.56H80.378C79.7193 33.56 79.234 33.716 78.922 34.028C78.6446 34.3053 78.506 34.7733 78.506 35.432V46.508L68.418 34.964C67.9673 34.444 67.4993 34.08 67.014 33.872C66.5633 33.664 66.0086 33.56 65.35 33.56H59.942C59.2833 33.56 58.798 33.716 58.486 34.028C58.2086 34.3053 58.07 34.7733 58.07 35.432V69.128C58.07 69.7867 58.2086 70.272 58.486 70.584C58.798 70.8613 59.2833 71 59.942 71H67.742ZM69.406 71.052L62.646 76.668C62.5073 76.8067 62.282 76.928 61.97 77.032C61.6926 77.136 61.3806 77.188 61.034 77.188H53.234C52.402 77.188 51.7953 76.9973 51.414 76.616C51.0326 76.2347 50.842 75.628 50.842 74.796V41.1C50.842 40.6493 50.894 40.268 50.998 39.956C51.1366 39.644 51.3273 39.384 51.57 39.176L58.278 33.508C58.4513 33.3693 58.6766 33.2653 58.954 33.196C59.266 33.092 59.5953 33.04 59.942 33.04H65.35C66.1126 33.04 66.754 33.1613 67.274 33.404C67.794 33.6467 68.314 34.0453 68.834 34.6L72.422 38.76L78.714 33.508C78.8873 33.3693 79.1126 33.2653 79.39 33.196C79.702 33.092 80.0313 33.04 80.378 33.04H88.178C89.01 33.04 89.6166 33.2307 89.998 33.612C90.3793 33.9933 90.57 34.6 90.57 35.432V69.128C90.57 69.5787 90.5006 69.96 90.362 70.272C90.258 70.584 90.0846 70.844 89.842 71.052L83.082 76.668C82.9433 76.8067 82.718 76.928 82.406 77.032C82.1286 77.136 81.8166 77.188 81.47 77.188H73.67C72.838 77.188 72.2313 76.9973 71.85 76.616C71.4686 76.2347 71.278 75.628 71.278 74.796V68.608L70.134 67.204V69.128C70.134 69.5787 70.0646 69.96 69.926 70.272C69.822 70.584 69.6486 70.844 69.406 71.052ZM118.886 77.188H96.734C95.902 77.188 95.2953 76.9973 94.914 76.616C94.5327 76.2347 94.342 75.628 94.342 74.796V68.608C94.342 68.1573 94.394 67.776 94.498 67.464C94.6367 67.152 94.8273 66.892 95.07 66.684L101.362 61.38V49.784H96.734C95.902 49.784 95.2953 49.5933 94.914 49.212C94.5327 48.8307 94.342 48.224 94.342 47.392V41.1C94.342 40.6493 94.394 40.268 94.498 39.956C94.6367 39.644 94.8273 39.384 95.07 39.176L101.778 33.508C101.951 33.3693 102.177 33.2653 102.454 33.196C102.766 33.092 103.095 33.04 103.442 33.04H125.594C126.426 33.04 127.033 33.2307 127.414 33.612C127.795 33.9933 127.986 34.6 127.986 35.432V41.724C127.986 42.1747 127.917 42.556 127.778 42.868C127.674 43.18 127.501 43.44 127.258 43.648L121.07 48.848V60.548H125.594C126.426 60.548 127.033 60.7387 127.414 61.12C127.795 61.5013 127.986 62.108 127.986 62.94V69.128C127.986 69.5787 127.917 69.96 127.778 70.272C127.674 70.584 127.501 70.844 127.258 71.052L120.498 76.668C120.359 76.8067 120.134 76.928 119.822 77.032C119.545 77.136 119.233 77.188 118.886 77.188ZM103.442 71H125.594C126.253 71 126.721 70.8613 126.998 70.584C127.31 70.272 127.466 69.7867 127.466 69.128V62.94C127.466 62.2813 127.31 61.8133 126.998 61.536C126.721 61.224 126.253 61.068 125.594 61.068H120.55V43.596H125.594C126.253 43.596 126.721 43.4573 126.998 43.18C127.31 42.868 127.466 42.3827 127.466 41.724V35.432C127.466 34.7733 127.31 34.3053 126.998 34.028C126.721 33.716 126.253 33.56 125.594 33.56H103.442C102.783 33.56 102.298 33.716 101.986 34.028C101.709 34.3053 101.57 34.7733 101.57 35.432V41.724C101.57 42.3827 101.709 42.868 101.986 43.18C102.298 43.4573 102.783 43.596 103.442 43.596H108.59V61.068H103.442C102.783 61.068 102.298 61.224 101.986 61.536C101.709 61.8133 101.57 62.2813 101.57 62.94V69.128C101.57 69.7867 101.709 70.272 101.986 70.584C102.298 70.8613 102.783 71 103.442 71ZM122.786 66.32H106.25V65.8H114.31V38.76H106.25V38.24H122.786V38.76H114.83V65.8H122.786V66.32ZM142.29 77.188H134.23C133.398 77.188 132.791 76.9973 132.41 76.616C132.029 76.2347 131.838 75.628 131.838 74.796V41.1C131.838 40.6493 131.89 40.268 131.994 39.956C132.133 39.644 132.323 39.384 132.566 39.176L139.274 33.508C139.447 33.3693 139.673 33.2653 139.95 33.196C140.262 33.092 140.591 33.04 140.938 33.04H164.13C164.962 33.04 165.569 33.2307 165.95 33.612C166.331 33.9933 166.522 34.6 166.522 35.432V41.62C166.522 42.0707 166.453 42.452 166.314 42.764C166.21 43.076 166.037 43.336 165.794 43.544L159.97 48.38C160.767 48.38 161.357 48.5707 161.738 48.952C162.119 49.3333 162.31 49.94 162.31 50.772V57.012C162.31 57.4627 162.241 57.844 162.102 58.156C161.998 58.468 161.825 58.728 161.582 58.936L154.822 64.552C154.683 64.6907 154.458 64.812 154.146 64.916C153.869 65.02 153.557 65.072 153.21 65.072H151.39V69.128C151.39 69.5787 151.321 69.96 151.182 70.272C151.078 70.584 150.905 70.844 150.662 71.052L143.902 76.668C143.763 76.8067 143.538 76.928 143.226 77.032C142.949 77.136 142.637 77.188 142.29 77.188ZM148.998 71C149.657 71 150.125 70.8613 150.402 70.584C150.714 70.272 150.87 69.7867 150.87 69.128V58.884H159.918C160.577 58.884 161.045 58.7453 161.322 58.468C161.634 58.156 161.79 57.6707 161.79 57.012V50.772C161.79 50.1133 161.634 49.6453 161.322 49.368C161.045 49.056 160.577 48.9 159.918 48.9H150.87V43.492H164.13C164.789 43.492 165.257 43.3533 165.534 43.076C165.846 42.764 166.002 42.2787 166.002 41.62V35.432C166.002 34.7733 165.846 34.3053 165.534 34.028C165.257 33.716 164.789 33.56 164.13 33.56H140.938C140.279 33.56 139.794 33.716 139.482 34.028C139.205 34.3053 139.066 34.7733 139.066 35.432V69.128C139.066 69.7867 139.205 70.272 139.482 70.584C139.794 70.8613 140.279 71 140.938 71H148.998ZM144.734 66.32V38.24H161.322V38.76H145.254V53.632H157.11V54.152H145.254V66.32H144.734ZM198.548 74.692C197.335 75.732 195.636 76.5293 193.452 77.084C191.268 77.6733 188.46 77.968 185.028 77.968C181.631 77.968 178.84 77.604 176.656 76.876C174.507 76.1827 172.808 75.2467 171.56 74.068C170.347 72.8893 169.498 71.5373 169.012 70.012C168.562 68.4867 168.336 66.9093 168.336 65.28V49.108C168.336 47.5133 168.562 46.04 169.012 44.688C169.463 43.3013 170.278 42.1227 171.456 41.152L178.216 35.536C179.43 34.496 181.111 33.6987 183.26 33.144C185.444 32.5547 188.27 32.26 191.736 32.26C195.134 32.26 197.907 32.5373 200.056 33.092C202.24 33.6467 203.939 34.4267 205.152 35.432C206.4 36.4027 207.25 37.5813 207.7 38.968C208.151 40.32 208.376 41.8107 208.376 43.44V61.172C208.376 62.7667 208.151 64.24 207.7 65.592C207.25 66.944 206.435 68.1053 205.256 69.076L198.548 74.692ZM207.856 61.172V43.44C207.856 41.8453 207.614 40.4067 207.128 39.124C206.678 37.8067 205.846 36.68 204.632 35.744C203.454 34.808 201.807 34.08 199.692 33.56C197.612 33.04 194.96 32.78 191.736 32.78C188.512 32.78 185.843 33.04 183.728 33.56C181.614 34.08 179.95 34.808 178.736 35.744C177.558 36.68 176.726 37.8067 176.24 39.124C175.79 40.4067 175.564 41.8453 175.564 43.44V61.172C175.564 62.7667 175.79 64.2227 176.24 65.54C176.726 66.8227 177.558 67.932 178.736 68.868C179.95 69.7693 181.614 70.48 183.728 71C185.843 71.52 188.512 71.78 191.736 71.78C194.96 71.78 197.612 71.52 199.692 71C201.807 70.48 203.454 69.7693 204.632 68.868C205.846 67.932 206.678 66.8227 207.128 65.54C207.614 64.2227 207.856 62.7667 207.856 61.172ZM202.188 59.976C202.188 62.056 201.443 63.7547 199.952 65.072C198.462 66.3547 195.688 66.996 191.632 66.996C187.576 66.996 184.82 66.3547 183.364 65.072C181.908 63.7547 181.18 62.056 181.18 59.976V44.636C181.18 42.556 181.908 40.8747 183.364 39.592C184.82 38.2747 187.576 37.616 191.632 37.616C195.688 37.616 198.462 38.2747 199.952 39.592C201.443 40.8747 202.188 42.556 202.188 44.636V59.976ZM181.7 59.976C181.7 61.9173 182.394 63.4947 183.78 64.708C185.167 65.8867 187.784 66.476 191.632 66.476C195.48 66.476 198.115 65.8867 199.536 64.708C200.958 63.4947 201.668 61.9173 201.668 59.976V44.636C201.668 42.6947 200.958 41.1347 199.536 39.956C198.115 38.7427 195.48 38.136 191.632 38.136C187.784 38.136 185.167 38.7427 183.78 39.956C182.394 41.1347 181.7 42.6947 181.7 44.636V59.976ZM187.368 59.3V45.312C187.368 44.6533 187.628 44.0987 188.148 43.648C188.668 43.1627 189.864 42.92 191.736 42.92C193.608 42.92 194.804 43.1627 195.324 43.648C195.844 44.0987 196.104 44.6533 196.104 45.312V59.3C196.104 59.9933 195.844 60.5827 195.324 61.068C194.804 61.5187 193.608 61.744 191.736 61.744C189.864 61.744 188.668 61.5187 188.148 61.068C187.628 60.5827 187.368 59.9933 187.368 59.3ZM187.888 59.3C187.888 59.6467 187.958 59.9587 188.096 60.236C188.235 60.4787 188.495 60.6867 188.876 60.86V50.98C188.876 50.6333 188.807 50.3387 188.668 50.096C188.53 49.8187 188.27 49.6107 187.888 49.472V59.3ZM237.128 38.76H225.792V53.788H237.128C239.277 53.788 240.716 53.268 241.444 52.228C242.172 51.188 242.536 49.7147 242.536 47.808V44.168C242.536 42.5733 242.085 41.2733 241.184 40.268C240.317 39.2627 238.965 38.76 237.128 38.76ZM231.408 42.92H235.308C236.209 42.92 236.816 43.1627 237.128 43.648C237.44 44.0987 237.596 44.6707 237.596 45.364V47.132C237.596 47.8253 237.44 48.4147 237.128 48.9C236.816 49.3507 236.209 49.576 235.308 49.576H231.408V42.92ZM225.792 66.32H225.272V38.24H237.128C239.139 38.24 240.629 38.812 241.6 39.956C242.571 41.0653 243.056 42.4693 243.056 44.168V47.756C243.056 49.3507 242.848 50.668 242.432 51.708C242.016 52.7133 241.184 53.4067 239.936 53.788H240.508C242.623 53.788 244.2 54.2733 245.24 55.244C246.28 56.18 246.8 57.5493 246.8 59.352V66.32H246.28V59.352C246.28 57.6533 245.812 56.388 244.876 55.556C243.94 54.6893 242.484 54.256 240.508 54.256H225.792V66.32ZM229.536 71C230.195 71 230.663 70.8613 230.94 70.584C231.252 70.272 231.408 69.7867 231.408 69.128V58.936H238.688C239.416 58.936 239.919 59.1267 240.196 59.508C240.508 59.8547 240.664 60.4093 240.664 61.172V69.128C240.664 69.7867 240.803 70.272 241.08 70.584C241.392 70.8613 241.877 71 242.536 71H250.596C251.255 71 251.723 70.8613 252 70.584C252.312 70.272 252.468 69.7867 252.468 69.128V58.104C252.468 55.92 251.879 54.1693 250.7 52.852C249.556 51.5347 248.048 50.772 246.176 50.564C247.251 50.1133 247.996 49.3853 248.412 48.38C248.863 47.34 249.088 46.092 249.088 44.636V42.244C249.088 39.6787 248.343 37.5987 246.852 36.004C245.396 34.3747 242.727 33.56 238.844 33.56H221.528C220.869 33.56 220.384 33.716 220.072 34.028C219.795 34.3053 219.656 34.7733 219.656 35.432V69.128C219.656 69.7867 219.795 70.272 220.072 70.584C220.384 70.8613 220.869 71 221.528 71H229.536ZM231.2 71.052L224.44 76.668C224.301 76.8067 224.076 76.928 223.764 77.032C223.487 77.136 223.175 77.188 222.828 77.188H214.82C213.988 77.188 213.381 76.9973 213 76.616C212.619 76.2347 212.428 75.628 212.428 74.796V41.1C212.428 40.6493 212.48 40.268 212.584 39.956C212.723 39.644 212.913 39.384 213.156 39.176L219.864 33.508C220.037 33.3693 220.263 33.2653 220.54 33.196C220.852 33.092 221.181 33.04 221.528 33.04H238.844C242.969 33.04 245.795 33.9067 247.32 35.64C248.845 37.3387 249.608 39.54 249.608 42.244V44.636C249.608 45.9187 249.452 47.0453 249.14 48.016C248.828 48.952 248.325 49.7147 247.632 50.304H247.58C249.209 50.7547 250.509 51.656 251.48 53.008C252.485 54.36 252.988 56.0587 252.988 58.104V69.128C252.988 69.5787 252.919 69.96 252.78 70.272C252.676 70.584 252.503 70.844 252.26 71.052L245.5 76.668C245.361 76.8067 245.136 76.928 244.824 77.032C244.547 77.136 244.235 77.188 243.888 77.188H235.828C234.996 77.188 234.389 76.9973 234.008 76.616C233.627 76.2347 233.436 75.628 233.436 74.796V66.84C233.436 66.2853 233.332 65.8693 233.124 65.592C232.916 65.28 232.535 65.124 231.98 65.124H231.928V69.128C231.928 69.5787 231.859 69.96 231.72 70.272C231.616 70.584 231.443 70.844 231.2 71.052ZM281.784 50.98C282.408 50.98 282.859 50.8413 283.136 50.564C283.413 50.2867 283.847 49.6973 284.436 48.796L290.78 39.124C290.988 38.7773 291.213 38.552 291.456 38.448C291.733 38.3093 292.011 38.24 292.288 38.24H293.172C293.657 38.24 294.004 38.3787 294.212 38.656C294.455 38.8987 294.576 39.2973 294.576 39.852V66.32H294.056V39.852C294.056 39.5747 293.987 39.332 293.848 39.124C293.744 38.8813 293.519 38.76 293.172 38.76H292.392C292.149 38.76 291.941 38.7947 291.768 38.864C291.595 38.9333 291.404 39.1413 291.196 39.488L284.852 49.056C284.228 49.992 283.743 50.6333 283.396 50.98C283.084 51.3267 282.547 51.5 281.784 51.5C281.021 51.5 280.467 51.3267 280.12 50.98C279.808 50.6333 279.34 49.992 278.716 49.056L272.372 39.488C272.164 39.1413 271.956 38.9333 271.748 38.864C271.575 38.7947 271.367 38.76 271.124 38.76H270.344C269.997 38.76 269.772 38.8813 269.668 39.124C269.564 39.332 269.512 39.5747 269.512 39.852V66.32H268.992V39.852C268.992 39.2973 269.096 38.8987 269.304 38.656C269.547 38.3787 269.893 38.24 270.344 38.24H271.228C271.505 38.24 271.783 38.3093 272.06 38.448C272.337 38.552 272.58 38.7773 272.788 39.124L279.132 48.796C279.721 49.6973 280.155 50.2867 280.432 50.564C280.709 50.8413 281.16 50.98 281.784 50.98ZM273.1 71C273.759 71 274.227 70.8613 274.504 70.584C274.816 70.272 274.972 69.7867 274.972 69.128V50.824L278.04 56.492C278.352 57.0813 278.716 57.5147 279.132 57.792C279.583 58.0347 280.137 58.156 280.796 58.156H282.876C283.535 58.156 284.072 58.0347 284.488 57.792C284.939 57.5147 285.32 57.0813 285.632 56.492L288.7 50.824V69.128C288.7 69.7867 288.839 70.272 289.116 70.584C289.428 70.8613 289.913 71 290.572 71H298.58C299.239 71 299.707 70.8613 299.984 70.584C300.296 70.272 300.452 69.7867 300.452 69.128V35.432C300.452 34.7733 300.296 34.3053 299.984 34.028C299.707 33.716 299.239 33.56 298.58 33.56H290.156C289.601 33.56 289.133 33.6813 288.752 33.924C288.405 34.1667 288.076 34.5653 287.764 35.12L283.136 43.596C282.963 43.908 282.807 44.1333 282.668 44.272C282.564 44.4107 282.408 44.48 282.2 44.48H281.732C281.524 44.48 281.351 44.4107 281.212 44.272C281.108 44.1333 280.969 43.908 280.796 43.596L276.116 35.12C275.804 34.5653 275.457 34.1667 275.076 33.924C274.729 33.6813 274.279 33.56 273.724 33.56H265.352C264.693 33.56 264.208 33.716 263.896 34.028C263.619 34.3053 263.48 34.7733 263.48 35.432V69.128C263.48 69.7867 263.619 70.272 263.896 70.584C264.208 70.8613 264.693 71 265.352 71H273.1ZM274.764 71.052L268.004 76.668C267.865 76.8067 267.64 76.928 267.328 77.032C267.051 77.136 266.739 77.188 266.392 77.188H258.644C257.812 77.188 257.205 76.9973 256.824 76.616C256.443 76.2347 256.252 75.628 256.252 74.796V41.1C256.252 40.6493 256.304 40.268 256.408 39.956C256.547 39.644 256.737 39.384 256.98 39.176L263.688 33.508C263.861 33.3693 264.087 33.2653 264.364 33.196C264.676 33.092 265.005 33.04 265.352 33.04H273.724C274.383 33.04 274.92 33.1787 275.336 33.456C275.787 33.7333 276.203 34.2013 276.584 34.86L280.12 41.36L280.588 40.528C280.727 40.2853 280.865 40.06 281.004 39.852C281.177 39.6093 281.351 39.4187 281.524 39.28L288.232 33.664C288.509 33.456 288.787 33.3 289.064 33.196C289.376 33.092 289.74 33.04 290.156 33.04H298.58C299.412 33.04 300.019 33.2307 300.4 33.612C300.781 33.9933 300.972 34.6 300.972 35.432V69.128C300.972 69.5787 300.903 69.96 300.764 70.272C300.66 70.584 300.487 70.844 300.244 71.052L293.484 76.668C293.345 76.8067 293.12 76.928 292.808 77.032C292.531 77.136 292.219 77.188 291.872 77.188H283.864C282.997 77.188 282.373 76.9973 281.992 76.616C281.645 76.2347 281.472 75.628 281.472 74.796V61.068L278.404 63.616C278.127 63.8587 277.797 64.0493 277.416 64.188C277.069 64.292 276.653 64.344 276.168 64.344H275.492V69.128C275.492 69.5787 275.423 69.96 275.284 70.272C275.18 70.584 275.007 70.844 274.764 71.052ZM332.131 77.188H308.003C307.171 77.188 306.565 76.9973 306.183 76.616C305.802 76.2347 305.611 75.628 305.611 74.796V41.1C305.611 40.6493 305.663 40.268 305.767 39.956C305.906 39.644 306.097 39.384 306.339 39.176L313.047 33.508C313.221 33.3693 313.446 33.2653 313.723 33.196C314.035 33.092 314.365 33.04 314.711 33.04H338.839C339.671 33.04 340.278 33.2307 340.659 33.612C341.041 33.9933 341.231 34.6 341.231 35.432V41.516C341.231 41.9667 341.162 42.348 341.023 42.66C340.919 42.972 340.746 43.232 340.503 43.44L336.031 47.132C336.378 47.3053 336.621 47.5653 336.759 47.912C336.933 48.2587 337.019 48.7093 337.019 49.264V54.828C337.019 55.2787 336.95 55.66 336.811 55.972C336.707 56.284 336.534 56.544 336.291 56.752L331.663 60.652H338.839C339.671 60.652 340.278 60.8427 340.659 61.224C341.041 61.6053 341.231 62.212 341.231 63.044V69.128C341.231 69.5787 341.162 69.96 341.023 70.272C340.919 70.584 340.746 70.844 340.503 71.052L333.743 76.668C333.605 76.8067 333.379 76.928 333.067 77.032C332.79 77.136 332.478 77.188 332.131 77.188ZM338.839 71C339.498 71 339.966 70.8613 340.243 70.584C340.555 70.272 340.711 69.7867 340.711 69.128V63.044C340.711 62.3853 340.555 61.9173 340.243 61.64C339.966 61.328 339.498 61.172 338.839 61.172H324.487V56.7H334.627C335.286 56.7 335.754 56.5613 336.031 56.284C336.343 55.972 336.499 55.4867 336.499 54.828V49.264C336.499 48.6053 336.343 48.1373 336.031 47.86C335.754 47.548 335.286 47.392 334.627 47.392H324.487V43.388H338.839C339.498 43.388 339.966 43.2493 340.243 42.972C340.555 42.66 340.711 42.1747 340.711 41.516V35.432C340.711 34.7733 340.555 34.3053 340.243 34.028C339.966 33.716 339.498 33.56 338.839 33.56H314.711C314.053 33.56 313.567 33.716 313.255 34.028C312.978 34.3053 312.839 34.7733 312.839 35.432V69.128C312.839 69.7867 312.978 70.272 313.255 70.584C313.567 70.8613 314.053 71 314.711 71H338.839ZM336.031 65.8V66.32H318.507V38.24H336.031V38.76H319.027V51.812H331.819V52.332H319.027V65.8H336.031Z" fill="#3B1BB9"/>
<path d="M352.926 37.072H348.338C347.722 37.072 347.278 36.9363 347.006 36.665C346.76 36.3937 346.636 35.962 346.636 35.37V29.524H340.975C340.383 29.524 339.952 29.4007 339.68 29.154C339.409 28.8827 339.273 28.4387 339.273 27.822V23.604C339.273 23.2833 339.31 23.012 339.384 22.79C339.483 22.568 339.619 22.383 339.791 22.235L344.564 18.202C344.688 18.1033 344.848 18.0293 345.045 17.98C345.267 17.906 345.502 17.869 345.748 17.869H346.636V16.056C346.636 15.7353 346.673 15.464 346.747 15.242C346.821 15.02 346.932 14.8473 347.08 14.724L347.117 14.687L351.927 10.654C352.051 10.5553 352.211 10.4813 352.408 10.432C352.606 10.358 352.84 10.321 353.111 10.321H357.699C358.291 10.321 358.723 10.4567 358.994 10.728C359.266 10.9993 359.401 11.431 359.401 12.023V17.869H365.062C365.654 17.869 366.086 18.0047 366.357 18.276C366.629 18.5227 366.764 18.9543 366.764 19.571V23.789C366.764 24.1097 366.715 24.381 366.616 24.603C366.542 24.825 366.419 25.01 366.246 25.158L361.473 29.191C361.325 29.2897 361.153 29.376 360.955 29.45C360.758 29.4993 360.536 29.524 360.289 29.524H359.401V31.337C359.401 31.6577 359.352 31.929 359.253 32.151C359.179 32.373 359.056 32.558 358.883 32.706L354.11 36.739C353.962 36.8377 353.79 36.9117 353.592 36.961C353.395 37.035 353.173 37.072 352.926 37.072ZM359.031 31.337V25.121H365.062C365.531 25.121 365.864 25.0223 366.061 24.825C366.283 24.603 366.394 24.2577 366.394 23.789V19.571C366.394 19.1023 366.283 18.7693 366.061 18.572C365.864 18.35 365.531 18.239 365.062 18.239H359.031V12.023C359.031 11.5543 358.92 11.2213 358.698 11.024C358.501 10.802 358.168 10.691 357.699 10.691H353.111C352.643 10.691 352.297 10.802 352.075 11.024C351.878 11.2213 351.779 11.5543 351.779 12.023V18.239H345.748C345.28 18.239 344.934 18.35 344.712 18.572C344.515 18.7693 344.416 19.1023 344.416 19.571V23.789C344.416 24.2577 344.515 24.603 344.712 24.825C344.934 25.0223 345.28 25.121 345.748 25.121H351.779V31.337C351.779 31.8057 351.878 32.151 352.075 32.373C352.297 32.5703 352.643 32.669 353.111 32.669H357.699C358.168 32.669 358.501 32.5703 358.698 32.373C358.92 32.151 359.031 31.8057 359.031 31.337ZM355.22 29.339V21.865H347.746V21.495H355.22V14.021H355.59V21.495H363.064V21.865H355.59V29.339H355.22Z" fill="#5839D2"/>
</g>
<defs>
<clipPath id="clip0_14_4">
<rect width="370" height="90" fill="white"/>
</clipPath>
</defs>
</svg>
