<svg width="433" height="110" viewBox="0 0 433 110" fill="none" xmlns="http://www.w3.org/2000/svg">
<g clip-path="url(#clip0_14_4)">
<path d="M36.0693 86.04C32.1893 86.04 28.9893 85.62 26.4693 84.78C23.9893 83.98 22.0493 82.9 20.6493 81.54C19.2493 80.18 18.2693 78.62 17.7093 76.86C17.1893 75.1 16.9293 73.28 16.9293 71.4V43.5C16.9293 42.98 16.9893 42.54 17.1093 42.18C17.2693 41.82 17.4893 41.52 17.7693 41.28L25.5093 34.74C25.7093 34.58 25.9693 34.46 26.2893 34.38C26.6493 34.26 27.0293 34.2 27.4293 34.2H36.8493C37.8093 34.2 38.5093 34.42 38.9493 34.86C39.3893 35.3 39.6093 36 39.6093 36.96V64.32C39.6093 64.68 39.6693 65.02 39.7893 65.34C39.9093 65.62 40.1693 65.84 40.5693 66V43.5C40.5693 42.98 40.6293 42.54 40.7493 42.18C40.8693 41.82 41.0493 41.54 41.2893 41.34L41.3493 41.28L49.1493 34.74C49.3493 34.58 49.6093 34.46 49.9293 34.38C50.2493 34.26 50.6293 34.2 51.0693 34.2H60.1893C61.1493 34.2 61.8493 34.42 62.2893 34.86C62.7293 35.3 62.9493 36 62.9493 36.96V66.66C62.9493 68.5 62.6893 70.2 62.1693 71.76C61.6493 73.32 60.7093 74.66 59.3493 75.78L51.5493 82.26C50.1493 83.46 48.2093 84.38 45.7293 85.02C43.2493 85.7 40.0293 86.04 36.0693 86.04ZM62.3493 66.66V36.96C62.3493 36.2 62.1693 35.66 61.8093 35.34C61.4893 34.98 60.9493 34.8 60.1893 34.8H51.0693C50.3093 34.8 49.7493 34.98 49.3893 35.34C49.0693 35.66 48.9093 36.2 48.9093 36.96V64.32C48.9093 65.12 48.6093 65.8 48.0093 66.36C47.4093 66.88 46.0493 67.14 43.9293 67.14C41.8493 67.14 40.5093 66.88 39.9093 66.36C39.3093 65.8 39.0093 65.12 39.0093 64.32V36.96C39.0093 36.2 38.8293 35.66 38.4693 35.34C38.1493 34.98 37.6093 34.8 36.8493 34.8H27.4293C26.6693 34.8 26.1093 34.98 25.7493 35.34C25.4293 35.66 25.2693 36.2 25.2693 36.96V66.66C25.2693 68.5 25.5293 70.18 26.0493 71.7C26.6093 73.18 27.5693 74.46 28.9293 75.54C30.3293 76.58 32.2293 77.4 34.6293 78C37.0293 78.6 40.0893 78.9 43.8093 78.9C47.5293 78.9 50.5893 78.6 52.9893 78C55.3893 77.4 57.2693 76.58 58.6293 75.54C60.0293 74.46 60.9893 73.18 61.5093 71.7C62.0693 70.18 62.3493 68.5 62.3493 66.66ZM31.8693 40.2H32.4693V65.22C32.4693 67.46 33.2493 69.28 34.8093 70.68C36.4093 72.04 39.4293 72.72 43.8693 72.72C48.3093 72.72 51.3293 72.04 52.9293 70.68C54.5293 69.28 55.3293 67.46 55.3293 65.22V40.2H55.9293V65.22C55.9293 67.62 55.0893 69.58 53.4093 71.1C51.7293 72.58 48.5493 73.32 43.8693 73.32C39.1893 73.32 36.0093 72.58 34.3293 71.1C32.6893 69.58 31.8693 67.62 31.8693 65.22V40.2ZM84.2315 40.68L106.311 65.52V40.2H106.911V72.6H106.311V66.42L83.6315 40.98C83.5915 40.94 83.5315 40.9 83.4515 40.86C83.4115 40.82 83.3715 40.8 83.3315 40.8C83.2915 40.8 83.2515 40.82 83.2115 40.86C83.2115 40.9 83.2115 40.94 83.2115 40.98V72.6H82.6115V40.86C82.6115 40.62 82.6915 40.44 82.8515 40.32C83.0115 40.2 83.1715 40.14 83.3315 40.14C83.4915 40.14 83.6315 40.18 83.7515 40.26C83.8715 40.34 84.0315 40.48 84.2315 40.68ZM87.4715 78C88.2315 78 88.7715 77.84 89.0915 77.52C89.4515 77.16 89.6315 76.6 89.6315 75.84V56.04L99.8915 68.46V75.84C99.8915 76.6 100.051 77.16 100.371 77.52C100.731 77.84 101.291 78 102.051 78H111.051C111.811 78 112.351 77.84 112.671 77.52C113.031 77.16 113.211 76.6 113.211 75.84V36.96C113.211 36.2 113.031 35.66 112.671 35.34C112.351 34.98 111.811 34.8 111.051 34.8H102.051C101.291 34.8 100.731 34.98 100.371 35.34C100.051 35.66 99.8915 36.2 99.8915 36.96V49.74L88.2515 36.42C87.7315 35.82 87.1915 35.4 86.6315 35.16C86.1115 34.92 85.4715 34.8 84.7115 34.8H78.4715C77.7115 34.8 77.1515 34.98 76.7915 35.34C76.4715 35.66 76.3115 36.2 76.3115 36.96V75.84C76.3115 76.6 76.4715 77.16 76.7915 77.52C77.1515 77.84 77.7115 78 78.4715 78H87.4715ZM89.3915 78.06L81.5915 84.54C81.4315 84.7 81.1715 84.84 80.8115 84.96C80.4915 85.08 80.1315 85.14 79.7315 85.14H70.7315C69.7715 85.14 69.0715 84.92 68.6315 84.48C68.1915 84.04 67.9715 83.34 67.9715 82.38V43.5C67.9715 42.98 68.0315 42.54 68.1515 42.18C68.3115 41.82 68.5315 41.52 68.8115 41.28L76.5515 34.74C76.7515 34.58 77.0115 34.46 77.3315 34.38C77.6915 34.26 78.0715 34.2 78.4715 34.2H84.7115C85.5915 34.2 86.3315 34.34 86.9315 34.62C87.5315 34.9 88.1315 35.36 88.7315 36L92.8715 40.8L100.131 34.74C100.331 34.58 100.591 34.46 100.911 34.38C101.271 34.26 101.651 34.2 102.051 34.2H111.051C112.011 34.2 112.711 34.42 113.151 34.86C113.591 35.3 113.811 36 113.811 36.96V75.84C113.811 76.36 113.731 76.8 113.571 77.16C113.451 77.52 113.251 77.82 112.971 78.06L105.171 84.54C105.011 84.7 104.751 84.84 104.391 84.96C104.071 85.08 103.711 85.14 103.311 85.14H94.3115C93.3515 85.14 92.6515 84.92 92.2115 84.48C91.7715 84.04 91.5515 83.34 91.5515 82.38V75.24L90.2315 73.62V75.84C90.2315 76.36 90.1515 76.8 89.9915 77.16C89.8715 77.52 89.6715 77.82 89.3915 78.06ZM146.484 85.14H120.924C119.964 85.14 119.264 84.92 118.824 84.48C118.384 84.04 118.164 83.34 118.164 82.38V75.24C118.164 74.72 118.224 74.28 118.344 73.92C118.504 73.56 118.724 73.26 119.004 73.02L126.264 66.9V53.52H120.924C119.964 53.52 119.264 53.3 118.824 52.86C118.384 52.42 118.164 51.72 118.164 50.76V43.5C118.164 42.98 118.224 42.54 118.344 42.18C118.504 41.82 118.724 41.52 119.004 41.28L126.744 34.74C126.944 34.58 127.204 34.46 127.524 34.38C127.884 34.26 128.264 34.2 128.664 34.2H154.224C155.184 34.2 155.884 34.42 156.324 34.86C156.764 35.3 156.984 36 156.984 36.96V44.22C156.984 44.74 156.904 45.18 156.744 45.54C156.624 45.9 156.424 46.2 156.144 46.44L149.004 52.44V65.94H154.224C155.184 65.94 155.884 66.16 156.324 66.6C156.764 67.04 156.984 67.74 156.984 68.7V75.84C156.984 76.36 156.904 76.8 156.744 77.16C156.624 77.52 156.424 77.82 156.144 78.06L148.344 84.54C148.184 84.7 147.924 84.84 147.564 84.96C147.244 85.08 146.884 85.14 146.484 85.14ZM128.664 78H154.224C154.984 78 155.524 77.84 155.844 77.52C156.204 77.16 156.384 76.6 156.384 75.84V68.7C156.384 67.94 156.204 67.4 155.844 67.08C155.524 66.72 154.984 66.54 154.224 66.54H148.404V46.38H154.224C154.984 46.38 155.524 46.22 155.844 45.9C156.204 45.54 156.384 44.98 156.384 44.22V36.96C156.384 36.2 156.204 35.66 155.844 35.34C155.524 34.98 154.984 34.8 154.224 34.8H128.664C127.904 34.8 127.344 34.98 126.984 35.34C126.664 35.66 126.504 36.2 126.504 36.96V44.22C126.504 44.98 126.664 45.54 126.984 45.9C127.344 46.22 127.904 46.38 128.664 46.38H134.604V66.54H128.664C127.904 66.54 127.344 66.72 126.984 67.08C126.664 67.4 126.504 67.94 126.504 68.7V75.84C126.504 76.6 126.664 77.16 126.984 77.52C127.344 77.84 127.904 78 128.664 78ZM150.984 72.6H131.904V72H141.204V40.8H131.904V40.2H150.984V40.8H141.804V72H150.984V72.6ZM173.489 85.14H164.189C163.229 85.14 162.529 84.92 162.089 84.48C161.649 84.04 161.429 83.34 161.429 82.38V43.5C161.429 42.98 161.489 42.54 161.609 42.18C161.769 41.82 161.989 41.52 162.269 41.28L170.009 34.74C170.209 34.58 170.469 34.46 170.789 34.38C171.149 34.26 171.529 34.2 171.929 34.2H198.689C199.649 34.2 200.349 34.42 200.789 34.86C201.229 35.3 201.449 36 201.449 36.96V44.1C201.449 44.62 201.369 45.06 201.209 45.42C201.089 45.78 200.889 46.08 200.609 46.32L193.889 51.9C194.809 51.9 195.489 52.12 195.929 52.56C196.369 53 196.589 53.7 196.589 54.66V61.86C196.589 62.38 196.509 62.82 196.349 63.18C196.229 63.54 196.029 63.84 195.749 64.08L187.949 70.56C187.789 70.72 187.529 70.86 187.169 70.98C186.849 71.1 186.489 71.16 186.089 71.16H183.989V75.84C183.989 76.36 183.909 76.8 183.749 77.16C183.629 77.52 183.429 77.82 183.149 78.06L175.349 84.54C175.189 84.7 174.929 84.84 174.569 84.96C174.249 85.08 173.889 85.14 173.489 85.14ZM181.229 78C181.989 78 182.529 77.84 182.849 77.52C183.209 77.16 183.389 76.6 183.389 75.84V64.02H193.829C194.589 64.02 195.129 63.86 195.449 63.54C195.809 63.18 195.989 62.62 195.989 61.86V54.66C195.989 53.9 195.809 53.36 195.449 53.04C195.129 52.68 194.589 52.5 193.829 52.5H183.389V46.26H198.689C199.449 46.26 199.989 46.1 200.309 45.78C200.669 45.42 200.849 44.86 200.849 44.1V36.96C200.849 36.2 200.669 35.66 200.309 35.34C199.989 34.98 199.449 34.8 198.689 34.8H171.929C171.169 34.8 170.609 34.98 170.249 35.34C169.929 35.66 169.769 36.2 169.769 36.96V75.84C169.769 76.6 169.929 77.16 170.249 77.52C170.609 77.84 171.169 78 171.929 78H181.229ZM176.309 72.6V40.2H195.449V40.8H176.909V57.96H190.589V58.56H176.909V72.6H176.309ZM238.402 82.26C237.002 83.46 235.042 84.38 232.522 85.02C230.002 85.7 226.762 86.04 222.802 86.04C218.882 86.04 215.662 85.62 213.142 84.78C210.662 83.98 208.702 82.9 207.262 81.54C205.862 80.18 204.882 78.62 204.322 76.86C203.802 75.1 203.542 73.28 203.542 71.4V52.74C203.542 50.9 203.802 49.2 204.322 47.64C204.842 46.04 205.782 44.68 207.142 43.56L214.942 37.08C216.342 35.88 218.282 34.96 220.762 34.32C223.282 33.64 226.542 33.3 230.542 33.3C234.462 33.3 237.662 33.62 240.142 34.26C242.662 34.9 244.622 35.8 246.022 36.96C247.462 38.08 248.442 39.44 248.962 41.04C249.482 42.6 249.742 44.32 249.742 46.2V66.66C249.742 68.5 249.482 70.2 248.962 71.76C248.442 73.32 247.502 74.66 246.142 75.78L238.402 82.26ZM249.142 66.66V46.2C249.142 44.36 248.862 42.7 248.302 41.22C247.782 39.7 246.822 38.4 245.422 37.32C244.062 36.24 242.162 35.4 239.722 34.8C237.322 34.2 234.262 33.9 230.542 33.9C226.822 33.9 223.742 34.2 221.302 34.8C218.862 35.4 216.942 36.24 215.542 37.32C214.182 38.4 213.222 39.7 212.662 41.22C212.142 42.7 211.882 44.36 211.882 46.2V66.66C211.882 68.5 212.142 70.18 212.662 71.7C213.222 73.18 214.182 74.46 215.542 75.54C216.942 76.58 218.862 77.4 221.302 78C223.742 78.6 226.822 78.9 230.542 78.9C234.262 78.9 237.322 78.6 239.722 78C242.162 77.4 244.062 76.58 245.422 75.54C246.822 74.46 247.782 73.18 248.302 71.7C248.862 70.18 249.142 68.5 249.142 66.66ZM242.602 65.28C242.602 67.68 241.742 69.64 240.022 71.16C238.302 72.64 235.102 73.38 230.422 73.38C225.742 73.38 222.562 72.64 220.882 71.16C219.202 69.64 218.362 67.68 218.362 65.28V47.58C218.362 45.18 219.202 43.24 220.882 41.76C222.562 40.24 225.742 39.48 230.422 39.48C235.102 39.48 238.302 40.24 240.022 41.76C241.742 43.24 242.602 45.18 242.602 47.58V65.28ZM218.962 65.28C218.962 67.52 219.762 69.34 221.362 70.74C222.962 72.1 225.982 72.78 230.422 72.78C234.862 72.78 237.902 72.1 239.542 70.74C241.182 69.34 242.002 67.52 242.002 65.28V47.58C242.002 45.34 241.182 43.54 239.542 42.18C237.902 40.78 234.862 40.08 230.422 40.08C225.982 40.08 222.962 40.78 221.362 42.18C219.762 43.54 218.962 45.34 218.962 47.58V65.28ZM225.502 64.5V48.36C225.502 47.6 225.802 46.96 226.402 46.44C227.002 45.88 228.382 45.6 230.542 45.6C232.702 45.6 234.082 45.88 234.682 46.44C235.282 46.96 235.582 47.6 235.582 48.36V64.5C235.582 65.3 235.282 65.98 234.682 66.54C234.082 67.06 232.702 67.32 230.542 67.32C228.382 67.32 227.002 67.06 226.402 66.54C225.802 65.98 225.502 65.3 225.502 64.5ZM226.102 64.5C226.102 64.9 226.182 65.26 226.342 65.58C226.502 65.86 226.802 66.1 227.242 66.3V54.9C227.242 54.5 227.162 54.16 227.002 53.88C226.842 53.56 226.542 53.32 226.102 53.16V64.5ZM282.917 40.8H269.837V58.14H282.917C285.397 58.14 287.057 57.54 287.897 56.34C288.737 55.14 289.157 53.44 289.157 51.24V47.04C289.157 45.2 288.637 43.7 287.597 42.54C286.597 41.38 285.037 40.8 282.917 40.8ZM276.317 45.6H280.817C281.857 45.6 282.557 45.88 282.917 46.44C283.277 46.96 283.457 47.62 283.457 48.42V50.46C283.457 51.26 283.277 51.94 282.917 52.5C282.557 53.02 281.857 53.28 280.817 53.28H276.317V45.6ZM269.837 72.6H269.237V40.2H282.917C285.237 40.2 286.957 40.86 288.077 42.18C289.197 43.46 289.757 45.08 289.757 47.04V51.18C289.757 53.02 289.517 54.54 289.037 55.74C288.557 56.9 287.597 57.7 286.157 58.14H286.817C289.257 58.14 291.077 58.7 292.277 59.82C293.477 60.9 294.077 62.48 294.077 64.56V72.6H293.477V64.56C293.477 62.6 292.937 61.14 291.857 60.18C290.777 59.18 289.097 58.68 286.817 58.68H269.837V72.6ZM274.157 78C274.917 78 275.457 77.84 275.777 77.52C276.137 77.16 276.317 76.6 276.317 75.84V64.08H284.717C285.557 64.08 286.137 64.3 286.457 64.74C286.817 65.14 286.997 65.78 286.997 66.66V75.84C286.997 76.6 287.157 77.16 287.477 77.52C287.837 77.84 288.397 78 289.157 78H298.457C299.217 78 299.757 77.84 300.077 77.52C300.437 77.16 300.617 76.6 300.617 75.84V63.12C300.617 60.6 299.937 58.58 298.577 57.06C297.257 55.54 295.517 54.66 293.357 54.42C294.597 53.9 295.457 53.06 295.937 51.9C296.457 50.7 296.717 49.26 296.717 47.58V44.82C296.717 41.86 295.857 39.46 294.137 37.62C292.457 35.74 289.377 34.8 284.897 34.8H264.917C264.157 34.8 263.597 34.98 263.237 35.34C262.917 35.66 262.757 36.2 262.757 36.96V75.84C262.757 76.6 262.917 77.16 263.237 77.52C263.597 77.84 264.157 78 264.917 78H274.157ZM276.077 78.06L268.277 84.54C268.117 84.7 267.857 84.84 267.497 84.96C267.177 85.08 266.817 85.14 266.417 85.14H257.177C256.217 85.14 255.517 84.92 255.077 84.48C254.637 84.04 254.417 83.34 254.417 82.38V43.5C254.417 42.98 254.477 42.54 254.597 42.18C254.757 41.82 254.977 41.52 255.257 41.28L262.997 34.74C263.197 34.58 263.457 34.46 263.777 34.38C264.137 34.26 264.517 34.2 264.917 34.2H284.897C289.657 34.2 292.917 35.2 294.677 37.2C296.437 39.16 297.317 41.7 297.317 44.82V47.58C297.317 49.06 297.137 50.36 296.777 51.48C296.417 52.56 295.837 53.44 295.037 54.12H294.977C296.857 54.64 298.357 55.68 299.477 57.24C300.637 58.8 301.217 60.76 301.217 63.12V75.84C301.217 76.36 301.137 76.8 300.977 77.16C300.857 77.52 300.657 77.82 300.377 78.06L292.577 84.54C292.417 84.7 292.157 84.84 291.797 84.96C291.477 85.08 291.117 85.14 290.717 85.14H281.417C280.457 85.14 279.757 84.92 279.317 84.48C278.877 84.04 278.657 83.34 278.657 82.38V73.2C278.657 72.56 278.537 72.08 278.297 71.76C278.057 71.4 277.617 71.22 276.977 71.22H276.917V75.84C276.917 76.36 276.837 76.8 276.677 77.16C276.557 77.52 276.357 77.82 276.077 78.06ZM334.443 54.9C335.163 54.9 335.683 54.74 336.003 54.42C336.323 54.1 336.823 53.42 337.503 52.38L344.823 41.22C345.063 40.82 345.323 40.56 345.603 40.44C345.923 40.28 346.243 40.2 346.563 40.2H347.583C348.143 40.2 348.543 40.36 348.783 40.68C349.063 40.96 349.203 41.42 349.203 42.06V72.6H348.603V42.06C348.603 41.74 348.523 41.46 348.363 41.22C348.243 40.94 347.983 40.8 347.583 40.8H346.683C346.403 40.8 346.163 40.84 345.963 40.92C345.763 41 345.543 41.24 345.303 41.64L337.983 52.68C337.263 53.76 336.703 54.5 336.303 54.9C335.943 55.3 335.323 55.5 334.443 55.5C333.563 55.5 332.923 55.3 332.523 54.9C332.163 54.5 331.623 53.76 330.903 52.68L323.583 41.64C323.343 41.24 323.103 41 322.863 40.92C322.663 40.84 322.423 40.8 322.143 40.8H321.243C320.843 40.8 320.583 40.94 320.463 41.22C320.343 41.46 320.283 41.74 320.283 42.06V72.6H319.683V42.06C319.683 41.42 319.803 40.96 320.043 40.68C320.323 40.36 320.723 40.2 321.243 40.2H322.263C322.583 40.2 322.903 40.28 323.223 40.44C323.543 40.56 323.823 40.82 324.063 41.22L331.383 52.38C332.063 53.42 332.563 54.1 332.883 54.42C333.203 54.74 333.723 54.9 334.443 54.9ZM324.423 78C325.183 78 325.723 77.84 326.043 77.52C326.403 77.16 326.583 76.6 326.583 75.84V54.72L330.123 61.26C330.483 61.94 330.903 62.44 331.383 62.76C331.903 63.04 332.543 63.18 333.303 63.18H335.703C336.463 63.18 337.083 63.04 337.563 62.76C338.083 62.44 338.523 61.94 338.883 61.26L342.423 54.72V75.84C342.423 76.6 342.583 77.16 342.903 77.52C343.263 77.84 343.823 78 344.583 78H353.823C354.583 78 355.123 77.84 355.443 77.52C355.803 77.16 355.983 76.6 355.983 75.84V36.96C355.983 36.2 355.803 35.66 355.443 35.34C355.123 34.98 354.583 34.8 353.823 34.8H344.103C343.463 34.8 342.923 34.94 342.483 35.22C342.083 35.5 341.703 35.96 341.343 36.6L336.003 46.38C335.803 46.74 335.623 47 335.463 47.16C335.343 47.32 335.163 47.4 334.923 47.4H334.383C334.143 47.4 333.943 47.32 333.783 47.16C333.663 47 333.503 46.74 333.303 46.38L327.903 36.6C327.543 35.96 327.143 35.5 326.703 35.22C326.303 34.94 325.783 34.8 325.143 34.8H315.483C314.723 34.8 314.163 34.98 313.803 35.34C313.483 35.66 313.323 36.2 313.323 36.96V75.84C313.323 76.6 313.483 77.16 313.803 77.52C314.163 77.84 314.723 78 315.483 78H324.423ZM326.343 78.06L318.543 84.54C318.383 84.7 318.123 84.84 317.763 84.96C317.443 85.08 317.083 85.14 316.683 85.14H307.743C306.783 85.14 306.083 84.92 305.643 84.48C305.203 84.04 304.983 83.34 304.983 82.38V43.5C304.983 42.98 305.043 42.54 305.163 42.18C305.323 41.82 305.543 41.52 305.823 41.28L313.563 34.74C313.763 34.58 314.023 34.46 314.343 34.38C314.703 34.26 315.083 34.2 315.483 34.2H325.143C325.903 34.2 326.523 34.36 327.003 34.68C327.523 35 328.003 35.54 328.443 36.3L332.523 43.8L333.063 42.84C333.223 42.56 333.383 42.3 333.543 42.06C333.743 41.78 333.943 41.56 334.143 41.4L341.883 34.92C342.203 34.68 342.523 34.5 342.843 34.38C343.203 34.26 343.623 34.2 344.103 34.2H353.823C354.783 34.2 355.483 34.42 355.923 34.86C356.363 35.3 356.583 36 356.583 36.96V75.84C356.583 76.36 356.503 76.8 356.343 77.16C356.223 77.52 356.023 77.82 355.743 78.06L347.943 84.54C347.783 84.7 347.523 84.84 347.163 84.96C346.843 85.08 346.483 85.14 346.083 85.14H336.843C335.843 85.14 335.123 84.92 334.683 84.48C334.283 84.04 334.083 83.34 334.083 82.38V66.54L330.543 69.48C330.223 69.76 329.843 69.98 329.403 70.14C329.003 70.26 328.523 70.32 327.963 70.32H327.183V75.84C327.183 76.36 327.103 76.8 326.943 77.16C326.823 77.52 326.623 77.82 326.343 78.06ZM392.536 85.14H364.696C363.736 85.14 363.036 84.92 362.596 84.48C362.156 84.04 361.936 83.34 361.936 82.38V43.5C361.936 42.98 361.996 42.54 362.116 42.18C362.276 41.82 362.496 41.52 362.776 41.28L370.516 34.74C370.716 34.58 370.976 34.46 371.296 34.38C371.656 34.26 372.036 34.2 372.436 34.2H400.276C401.236 34.2 401.936 34.42 402.376 34.86C402.816 35.3 403.036 36 403.036 36.96V43.98C403.036 44.5 402.956 44.94 402.796 45.3C402.676 45.66 402.476 45.96 402.196 46.2L397.036 50.46C397.436 50.66 397.716 50.96 397.876 51.36C398.076 51.76 398.176 52.28 398.176 52.92V59.34C398.176 59.86 398.096 60.3 397.936 60.66C397.816 61.02 397.616 61.32 397.336 61.56L391.996 66.06H400.276C401.236 66.06 401.936 66.28 402.376 66.72C402.816 67.16 403.036 67.86 403.036 68.82V75.84C403.036 76.36 402.956 76.8 402.796 77.16C402.676 77.52 402.476 77.82 402.196 78.06L394.396 84.54C394.236 84.7 393.976 84.84 393.616 84.96C393.296 85.08 392.936 85.14 392.536 85.14ZM400.276 78C401.036 78 401.576 77.84 401.896 77.52C402.256 77.16 402.436 76.6 402.436 75.84V68.82C402.436 68.06 402.256 67.52 401.896 67.2C401.576 66.84 401.036 66.66 400.276 66.66H383.716V61.5H395.416C396.176 61.5 396.716 61.34 397.036 61.02C397.396 60.66 397.576 60.1 397.576 59.34V52.92C397.576 52.16 397.396 51.62 397.036 51.3C396.716 50.94 396.176 50.76 395.416 50.76H383.716V46.14H400.276C401.036 46.14 401.576 45.98 401.896 45.66C402.256 45.3 402.436 44.74 402.436 43.98V36.96C402.436 36.2 402.256 35.66 401.896 35.34C401.576 34.98 401.036 34.8 400.276 34.8H372.436C371.676 34.8 371.116 34.98 370.756 35.34C370.436 35.66 370.276 36.2 370.276 36.96V75.84C370.276 76.6 370.436 77.16 370.756 77.52C371.116 77.84 371.676 78 372.436 78H400.276ZM397.036 72V72.6H376.816V40.2H397.036V40.8H377.416V55.86H392.176V56.46H377.416V72H397.036Z" fill="#3B1BB9"/>
<path d="M413.926 40.072H409.338C408.722 40.072 408.278 39.9363 408.006 39.665C407.76 39.3937 407.636 38.962 407.636 38.37V32.524H401.975C401.383 32.524 400.952 32.4007 400.68 32.154C400.409 31.8827 400.273 31.4387 400.273 30.822V26.604C400.273 26.2833 400.31 26.012 400.384 25.79C400.483 25.568 400.619 25.383 400.791 25.235L405.564 21.202C405.688 21.1033 405.848 21.0293 406.045 20.98C406.267 20.906 406.502 20.869 406.748 20.869H407.636V19.056C407.636 18.7353 407.673 18.464 407.747 18.242C407.821 18.02 407.932 17.8473 408.08 17.724L408.117 17.687L412.927 13.654C413.051 13.5553 413.211 13.4813 413.408 13.432C413.606 13.358 413.84 13.321 414.111 13.321H418.699C419.291 13.321 419.723 13.4567 419.994 13.728C420.266 13.9993 420.401 14.431 420.401 15.023V20.869H426.062C426.654 20.869 427.086 21.0047 427.357 21.276C427.629 21.5227 427.764 21.9543 427.764 22.571V26.789C427.764 27.1097 427.715 27.381 427.616 27.603C427.542 27.825 427.419 28.01 427.246 28.158L422.473 32.191C422.325 32.2897 422.153 32.376 421.955 32.45C421.758 32.4993 421.536 32.524 421.289 32.524H420.401V34.337C420.401 34.6577 420.352 34.929 420.253 35.151C420.179 35.373 420.056 35.558 419.883 35.706L415.11 39.739C414.962 39.8377 414.79 39.9117 414.592 39.961C414.395 40.035 414.173 40.072 413.926 40.072ZM420.031 34.337V28.121H426.062C426.531 28.121 426.864 28.0223 427.061 27.825C427.283 27.603 427.394 27.2577 427.394 26.789V22.571C427.394 22.1023 427.283 21.7693 427.061 21.572C426.864 21.35 426.531 21.239 426.062 21.239H420.031V15.023C420.031 14.5543 419.92 14.2213 419.698 14.024C419.501 13.802 419.168 13.691 418.699 13.691H414.111C413.643 13.691 413.297 13.802 413.075 14.024C412.878 14.2213 412.779 14.5543 412.779 15.023V21.239H406.748C406.28 21.239 405.934 21.35 405.712 21.572C405.515 21.7693 405.416 22.1023 405.416 22.571V26.789C405.416 27.2577 405.515 27.603 405.712 27.825C405.934 28.0223 406.28 28.121 406.748 28.121H412.779V34.337C412.779 34.8057 412.878 35.151 413.075 35.373C413.297 35.5703 413.643 35.669 414.111 35.669H418.699C419.168 35.669 419.501 35.5703 419.698 35.373C419.92 35.151 420.031 34.8057 420.031 34.337ZM416.22 32.339V24.865H408.746V24.495H416.22V17.021H416.59V24.495H424.064V24.865H416.59V32.339H416.22Z" fill="#5839D2"/>
</g>
<defs>
<clipPath id="clip0_14_4">
<rect width="433" height="110" fill="white"/>
</clipPath>
</defs>
</svg>
