<svg width="288" height="57" viewBox="0 0 288 57" fill="none" xmlns="http://www.w3.org/2000/svg">
<g clip-path="url(#clip0_14_4)">
<path d="M18.3795 54.36C15.7929 54.36 13.6595 54.08 11.9795 53.52C10.3262 52.9867 9.03286 52.2667 8.09953 51.36C7.1662 50.4533 6.51286 49.4133 6.13953 48.24C5.79286 47.0667 5.61953 45.8533 5.61953 44.6V26C5.61953 25.6533 5.65953 25.36 5.73953 25.12C5.8462 24.88 5.99286 24.68 6.17953 24.52L11.3395 20.16C11.4729 20.0533 11.6462 19.9733 11.8595 19.92C12.0995 19.84 12.3529 19.8 12.6195 19.8H18.8995C19.5395 19.8 20.0062 19.9467 20.2995 20.24C20.5929 20.5333 20.7395 21 20.7395 21.64V39.88C20.7395 40.12 20.7795 40.3467 20.8595 40.56C20.9395 40.7467 21.1129 40.8933 21.3795 41V26C21.3795 25.6533 21.4195 25.36 21.4995 25.12C21.5795 24.88 21.6995 24.6933 21.8595 24.56L21.8995 24.52L27.0995 20.16C27.2329 20.0533 27.4062 19.9733 27.6195 19.92C27.8329 19.84 28.0862 19.8 28.3795 19.8H34.4595C35.0995 19.8 35.5662 19.9467 35.8595 20.24C36.1529 20.5333 36.2995 21 36.2995 21.64V41.44C36.2995 42.6667 36.1262 43.8 35.7795 44.84C35.4329 45.88 34.8062 46.7733 33.8995 47.52L28.6995 51.84C27.7662 52.64 26.4729 53.2533 24.8195 53.68C23.1662 54.1333 21.0195 54.36 18.3795 54.36ZM35.8995 41.44V21.64C35.8995 21.1333 35.7795 20.7733 35.5395 20.56C35.3262 20.32 34.9662 20.2 34.4595 20.2H28.3795C27.8729 20.2 27.4995 20.32 27.2595 20.56C27.0462 20.7733 26.9395 21.1333 26.9395 21.64V39.88C26.9395 40.4133 26.7395 40.8667 26.3395 41.24C25.9395 41.5867 25.0329 41.76 23.6195 41.76C22.2329 41.76 21.3395 41.5867 20.9395 41.24C20.5395 40.8667 20.3395 40.4133 20.3395 39.88V21.64C20.3395 21.1333 20.2195 20.7733 19.9795 20.56C19.7662 20.32 19.4062 20.2 18.8995 20.2H12.6195C12.1129 20.2 11.7395 20.32 11.4995 20.56C11.2862 20.7733 11.1795 21.1333 11.1795 21.64V41.44C11.1795 42.6667 11.3529 43.7867 11.6995 44.8C12.0729 45.7867 12.7129 46.64 13.6195 47.36C14.5529 48.0533 15.8195 48.6 17.4195 49C19.0195 49.4 21.0595 49.6 23.5395 49.6C26.0195 49.6 28.0595 49.4 29.6595 49C31.2595 48.6 32.5129 48.0533 33.4195 47.36C34.3529 46.64 34.9929 45.7867 35.3395 44.8C35.7129 43.7867 35.8995 42.6667 35.8995 41.44ZM15.5795 23.8H15.9795V40.48C15.9795 41.9733 16.4995 43.1867 17.5395 44.12C18.6062 45.0267 20.6195 45.48 23.5795 45.48C26.5395 45.48 28.5529 45.0267 29.6195 44.12C30.6862 43.1867 31.2195 41.9733 31.2195 40.48V23.8H31.6195V40.48C31.6195 42.08 31.0595 43.3867 29.9395 44.4C28.8195 45.3867 26.6995 45.88 23.5795 45.88C20.4595 45.88 18.3395 45.3867 17.2195 44.4C16.1262 43.3867 15.5795 42.08 15.5795 40.48V23.8ZM50.4877 24.12L65.2077 40.68V23.8H65.6077V45.4H65.2077V41.28L50.0877 24.32C50.061 24.2933 50.021 24.2667 49.9677 24.24C49.941 24.2133 49.9143 24.2 49.8877 24.2C49.861 24.2 49.8343 24.2133 49.8077 24.24C49.8077 24.2667 49.8077 24.2933 49.8077 24.32V45.4H49.4077V24.24C49.4077 24.08 49.461 23.96 49.5677 23.88C49.6743 23.8 49.781 23.76 49.8877 23.76C49.9943 23.76 50.0877 23.7867 50.1677 23.84C50.2477 23.8933 50.3543 23.9867 50.4877 24.12ZM52.6477 49C53.1543 49 53.5143 48.8933 53.7277 48.68C53.9677 48.44 54.0877 48.0667 54.0877 47.56V34.36L60.9277 42.64V47.56C60.9277 48.0667 61.0343 48.44 61.2477 48.68C61.4877 48.8933 61.861 49 62.3677 49H68.3677C68.8743 49 69.2343 48.8933 69.4477 48.68C69.6877 48.44 69.8077 48.0667 69.8077 47.56V21.64C69.8077 21.1333 69.6877 20.7733 69.4477 20.56C69.2343 20.32 68.8743 20.2 68.3677 20.2H62.3677C61.861 20.2 61.4877 20.32 61.2477 20.56C61.0343 20.7733 60.9277 21.1333 60.9277 21.64V30.16L53.1677 21.28C52.821 20.88 52.461 20.6 52.0877 20.44C51.741 20.28 51.3143 20.2 50.8077 20.2H46.6477C46.141 20.2 45.7677 20.32 45.5277 20.56C45.3143 20.7733 45.2077 21.1333 45.2077 21.64V47.56C45.2077 48.0667 45.3143 48.44 45.5277 48.68C45.7677 48.8933 46.141 49 46.6477 49H52.6477ZM53.9277 49.04L48.7277 53.36C48.621 53.4667 48.4477 53.56 48.2077 53.64C47.9943 53.72 47.7543 53.76 47.4877 53.76H41.4877C40.8477 53.76 40.381 53.6133 40.0877 53.32C39.7943 53.0267 39.6477 52.56 39.6477 51.92V26C39.6477 25.6533 39.6877 25.36 39.7677 25.12C39.8743 24.88 40.021 24.68 40.2077 24.52L45.3677 20.16C45.501 20.0533 45.6743 19.9733 45.8877 19.92C46.1277 19.84 46.381 19.8 46.6477 19.8H50.8077C51.3943 19.8 51.8877 19.8933 52.2877 20.08C52.6877 20.2667 53.0877 20.5733 53.4877 21L56.2477 24.2L61.0877 20.16C61.221 20.0533 61.3943 19.9733 61.6077 19.92C61.8477 19.84 62.101 19.8 62.3677 19.8H68.3677C69.0077 19.8 69.4743 19.9467 69.7677 20.24C70.061 20.5333 70.2077 21 70.2077 21.64V47.56C70.2077 47.9067 70.1543 48.2 70.0477 48.44C69.9677 48.68 69.8343 48.88 69.6477 49.04L64.4477 53.36C64.341 53.4667 64.1677 53.56 63.9277 53.64C63.7143 53.72 63.4743 53.76 63.2077 53.76H57.2077C56.5677 53.76 56.101 53.6133 55.8077 53.32C55.5143 53.0267 55.3677 52.56 55.3677 51.92V47.16L54.4877 46.08V47.56C54.4877 47.9067 54.4343 48.2 54.3277 48.44C54.2477 48.68 54.1143 48.88 53.9277 49.04ZM91.9892 53.76H74.9492C74.3092 53.76 73.8426 53.6133 73.5492 53.32C73.2559 53.0267 73.1092 52.56 73.1092 51.92V47.16C73.1092 46.8133 73.1492 46.52 73.2292 46.28C73.3359 46.04 73.4826 45.84 73.6692 45.68L78.5092 41.6V32.68H74.9492C74.3092 32.68 73.8426 32.5333 73.5492 32.24C73.2559 31.9467 73.1092 31.48 73.1092 30.84V26C73.1092 25.6533 73.1492 25.36 73.2292 25.12C73.3359 24.88 73.4826 24.68 73.6692 24.52L78.8292 20.16C78.9626 20.0533 79.1359 19.9733 79.3492 19.92C79.5892 19.84 79.8426 19.8 80.1092 19.8H97.1492C97.7892 19.8 98.2559 19.9467 98.5492 20.24C98.8426 20.5333 98.9892 21 98.9892 21.64V26.48C98.9892 26.8267 98.9359 27.12 98.8292 27.36C98.7492 27.6 98.6159 27.8 98.4292 27.96L93.6692 31.96V40.96H97.1492C97.7892 40.96 98.2559 41.1067 98.5492 41.4C98.8426 41.6933 98.9892 42.16 98.9892 42.8V47.56C98.9892 47.9067 98.9359 48.2 98.8292 48.44C98.7492 48.68 98.6159 48.88 98.4292 49.04L93.2292 53.36C93.1226 53.4667 92.9492 53.56 92.7092 53.64C92.4959 53.72 92.2559 53.76 91.9892 53.76ZM80.1092 49H97.1492C97.6559 49 98.0159 48.8933 98.2292 48.68C98.4692 48.44 98.5892 48.0667 98.5892 47.56V42.8C98.5892 42.2933 98.4692 41.9333 98.2292 41.72C98.0159 41.48 97.6559 41.36 97.1492 41.36H93.2692V27.92H97.1492C97.6559 27.92 98.0159 27.8133 98.2292 27.6C98.4692 27.36 98.5892 26.9867 98.5892 26.48V21.64C98.5892 21.1333 98.4692 20.7733 98.2292 20.56C98.0159 20.32 97.6559 20.2 97.1492 20.2H80.1092C79.6026 20.2 79.2292 20.32 78.9892 20.56C78.7759 20.7733 78.6692 21.1333 78.6692 21.64V26.48C78.6692 26.9867 78.7759 27.36 78.9892 27.6C79.2292 27.8133 79.6026 27.92 80.1092 27.92H84.0692V41.36H80.1092C79.6026 41.36 79.2292 41.48 78.9892 41.72C78.7759 41.9333 78.6692 42.2933 78.6692 42.8V47.56C78.6692 48.0667 78.7759 48.44 78.9892 48.68C79.2292 48.8933 79.6026 49 80.1092 49ZM94.9892 45.4H82.2692V45H88.4692V24.2H82.2692V23.8H94.9892V24.2H88.8692V45H94.9892V45.4ZM109.992 53.76H103.792C103.152 53.76 102.686 53.6133 102.392 53.32C102.099 53.0267 101.952 52.56 101.952 51.92V26C101.952 25.6533 101.992 25.36 102.072 25.12C102.179 24.88 102.326 24.68 102.512 24.52L107.672 20.16C107.806 20.0533 107.979 19.9733 108.192 19.92C108.432 19.84 108.686 19.8 108.952 19.8H126.792C127.432 19.8 127.899 19.9467 128.192 20.24C128.486 20.5333 128.632 21 128.632 21.64V26.4C128.632 26.7467 128.579 27.04 128.472 27.28C128.392 27.52 128.259 27.72 128.072 27.88L123.592 31.6C124.206 31.6 124.659 31.7467 124.952 32.04C125.246 32.3333 125.392 32.8 125.392 33.44V38.24C125.392 38.5867 125.339 38.88 125.232 39.12C125.152 39.36 125.019 39.56 124.832 39.72L119.632 44.04C119.526 44.1467 119.352 44.24 119.112 44.32C118.899 44.4 118.659 44.44 118.392 44.44H116.992V47.56C116.992 47.9067 116.939 48.2 116.832 48.44C116.752 48.68 116.619 48.88 116.432 49.04L111.232 53.36C111.126 53.4667 110.952 53.56 110.712 53.64C110.499 53.72 110.259 53.76 109.992 53.76ZM115.152 49C115.659 49 116.019 48.8933 116.232 48.68C116.472 48.44 116.592 48.0667 116.592 47.56V39.68H123.552C124.059 39.68 124.419 39.5733 124.632 39.36C124.872 39.12 124.992 38.7467 124.992 38.24V33.44C124.992 32.9333 124.872 32.5733 124.632 32.36C124.419 32.12 124.059 32 123.552 32H116.592V27.84H126.792C127.299 27.84 127.659 27.7333 127.872 27.52C128.112 27.28 128.232 26.9067 128.232 26.4V21.64C128.232 21.1333 128.112 20.7733 127.872 20.56C127.659 20.32 127.299 20.2 126.792 20.2H108.952C108.446 20.2 108.072 20.32 107.832 20.56C107.619 20.7733 107.512 21.1333 107.512 21.64V47.56C107.512 48.0667 107.619 48.44 107.832 48.68C108.072 48.8933 108.446 49 108.952 49H115.152ZM111.872 45.4V23.8H124.632V24.2H112.272V35.64H121.392V36.04H112.272V45.4H111.872ZM153.268 51.84C152.335 52.64 151.028 53.2533 149.348 53.68C147.668 54.1333 145.508 54.36 142.868 54.36C140.255 54.36 138.108 54.08 136.428 53.52C134.775 52.9867 133.468 52.2667 132.508 51.36C131.575 50.4533 130.921 49.4133 130.548 48.24C130.201 47.0667 130.028 45.8533 130.028 44.6V32.16C130.028 30.9333 130.201 29.8 130.548 28.76C130.895 27.6933 131.521 26.7867 132.428 26.04L137.628 21.72C138.561 20.92 139.855 20.3067 141.508 19.88C143.188 19.4267 145.361 19.2 148.028 19.2C150.641 19.2 152.775 19.4133 154.428 19.84C156.108 20.2667 157.415 20.8667 158.348 21.64C159.308 22.3867 159.961 23.2933 160.308 24.36C160.655 25.4 160.828 26.5467 160.828 27.8V41.44C160.828 42.6667 160.655 43.8 160.308 44.84C159.961 45.88 159.335 46.7733 158.428 47.52L153.268 51.84ZM160.428 41.44V27.8C160.428 26.5733 160.241 25.4667 159.868 24.48C159.521 23.4667 158.881 22.6 157.948 21.88C157.041 21.16 155.775 20.6 154.148 20.2C152.548 19.8 150.508 19.6 148.028 19.6C145.548 19.6 143.495 19.8 141.868 20.2C140.241 20.6 138.961 21.16 138.028 21.88C137.121 22.6 136.481 23.4667 136.108 24.48C135.761 25.4667 135.588 26.5733 135.588 27.8V41.44C135.588 42.6667 135.761 43.7867 136.108 44.8C136.481 45.7867 137.121 46.64 138.028 47.36C138.961 48.0533 140.241 48.6 141.868 49C143.495 49.4 145.548 49.6 148.028 49.6C150.508 49.6 152.548 49.4 154.148 49C155.775 48.6 157.041 48.0533 157.948 47.36C158.881 46.64 159.521 45.7867 159.868 44.8C160.241 43.7867 160.428 42.6667 160.428 41.44ZM156.068 40.52C156.068 42.12 155.495 43.4267 154.348 44.44C153.201 45.4267 151.068 45.92 147.948 45.92C144.828 45.92 142.708 45.4267 141.588 44.44C140.468 43.4267 139.908 42.12 139.908 40.52V28.72C139.908 27.12 140.468 25.8267 141.588 24.84C142.708 23.8267 144.828 23.32 147.948 23.32C151.068 23.32 153.201 23.8267 154.348 24.84C155.495 25.8267 156.068 27.12 156.068 28.72V40.52ZM140.308 40.52C140.308 42.0133 140.841 43.2267 141.908 44.16C142.975 45.0667 144.988 45.52 147.948 45.52C150.908 45.52 152.935 45.0667 154.028 44.16C155.121 43.2267 155.668 42.0133 155.668 40.52V28.72C155.668 27.2267 155.121 26.0267 154.028 25.12C152.935 24.1867 150.908 23.72 147.948 23.72C144.988 23.72 142.975 24.1867 141.908 25.12C140.841 26.0267 140.308 27.2267 140.308 28.72V40.52ZM144.668 40V29.24C144.668 28.7333 144.868 28.3067 145.268 27.96C145.668 27.5867 146.588 27.4 148.028 27.4C149.468 27.4 150.388 27.5867 150.788 27.96C151.188 28.3067 151.388 28.7333 151.388 29.24V40C151.388 40.5333 151.188 40.9867 150.788 41.36C150.388 41.7067 149.468 41.88 148.028 41.88C146.588 41.88 145.668 41.7067 145.268 41.36C144.868 40.9867 144.668 40.5333 144.668 40ZM145.068 40C145.068 40.2667 145.121 40.5067 145.228 40.72C145.335 40.9067 145.535 41.0667 145.828 41.2V33.6C145.828 33.3333 145.775 33.1067 145.668 32.92C145.561 32.7067 145.361 32.5467 145.068 32.44V40ZM182.945 24.2H174.225V35.76H182.945C184.598 35.76 185.705 35.36 186.265 34.56C186.825 33.76 187.105 32.6267 187.105 31.16V28.36C187.105 27.1333 186.758 26.1333 186.065 25.36C185.398 24.5867 184.358 24.2 182.945 24.2ZM178.545 27.4H181.545C182.238 27.4 182.705 27.5867 182.945 27.96C183.185 28.3067 183.305 28.7467 183.305 29.28V30.64C183.305 31.1733 183.185 31.6267 182.945 32C182.705 32.3467 182.238 32.52 181.545 32.52H178.545V27.4ZM174.225 45.4H173.825V23.8H182.945C184.491 23.8 185.638 24.24 186.385 25.12C187.131 25.9733 187.505 27.0533 187.505 28.36V31.12C187.505 32.3467 187.345 33.36 187.025 34.16C186.705 34.9333 186.065 35.4667 185.105 35.76H185.545C187.171 35.76 188.385 36.1333 189.185 36.88C189.985 37.6 190.385 38.6533 190.385 40.04V45.4H189.985V40.04C189.985 38.7333 189.625 37.76 188.905 37.12C188.185 36.4533 187.065 36.12 185.545 36.12H174.225V45.4ZM177.105 49C177.611 49 177.971 48.8933 178.185 48.68C178.425 48.44 178.545 48.0667 178.545 47.56V39.72H184.145C184.705 39.72 185.091 39.8667 185.305 40.16C185.545 40.4267 185.665 40.8533 185.665 41.44V47.56C185.665 48.0667 185.771 48.44 185.985 48.68C186.225 48.8933 186.598 49 187.105 49H193.305C193.811 49 194.171 48.8933 194.385 48.68C194.625 48.44 194.745 48.0667 194.745 47.56V39.08C194.745 37.4 194.291 36.0533 193.385 35.04C192.505 34.0267 191.345 33.44 189.905 33.28C190.731 32.9333 191.305 32.3733 191.625 31.6C191.971 30.8 192.145 29.84 192.145 28.72V26.88C192.145 24.9067 191.571 23.3067 190.425 22.08C189.305 20.8267 187.251 20.2 184.265 20.2H170.945C170.438 20.2 170.065 20.32 169.825 20.56C169.611 20.7733 169.505 21.1333 169.505 21.64V47.56C169.505 48.0667 169.611 48.44 169.825 48.68C170.065 48.8933 170.438 49 170.945 49H177.105ZM178.385 49.04L173.185 53.36C173.078 53.4667 172.905 53.56 172.665 53.64C172.451 53.72 172.211 53.76 171.945 53.76H165.785C165.145 53.76 164.678 53.6133 164.385 53.32C164.091 53.0267 163.945 52.56 163.945 51.92V26C163.945 25.6533 163.985 25.36 164.065 25.12C164.171 24.88 164.318 24.68 164.505 24.52L169.665 20.16C169.798 20.0533 169.971 19.9733 170.185 19.92C170.425 19.84 170.678 19.8 170.945 19.8H184.265C187.438 19.8 189.611 20.4667 190.785 21.8C191.958 23.1067 192.545 24.8 192.545 26.88V28.72C192.545 29.7067 192.425 30.5733 192.185 31.32C191.945 32.04 191.558 32.6267 191.025 33.08H190.985C192.238 33.4267 193.238 34.12 193.985 35.16C194.758 36.2 195.145 37.5067 195.145 39.08V47.56C195.145 47.9067 195.091 48.2 194.985 48.44C194.905 48.68 194.771 48.88 194.585 49.04L189.385 53.36C189.278 53.4667 189.105 53.56 188.865 53.64C188.651 53.72 188.411 53.76 188.145 53.76H181.945C181.305 53.76 180.838 53.6133 180.545 53.32C180.251 53.0267 180.105 52.56 180.105 51.92V45.8C180.105 45.3733 180.025 45.0533 179.865 44.84C179.705 44.6 179.411 44.48 178.985 44.48H178.945V47.56C178.945 47.9067 178.891 48.2 178.785 48.44C178.705 48.68 178.571 48.88 178.385 49.04ZM217.295 33.6C217.775 33.6 218.122 33.4933 218.335 33.28C218.549 33.0667 218.882 32.6133 219.335 31.92L224.215 24.48C224.375 24.2133 224.549 24.04 224.735 23.96C224.949 23.8533 225.162 23.8 225.375 23.8H226.055C226.429 23.8 226.695 23.9067 226.855 24.12C227.042 24.3067 227.135 24.6133 227.135 25.04V45.4H226.735V25.04C226.735 24.8267 226.682 24.64 226.575 24.48C226.495 24.2933 226.322 24.2 226.055 24.2H225.455C225.269 24.2 225.109 24.2267 224.975 24.28C224.842 24.3333 224.695 24.4933 224.535 24.76L219.655 32.12C219.175 32.84 218.802 33.3333 218.535 33.6C218.295 33.8667 217.882 34 217.295 34C216.709 34 216.282 33.8667 216.015 33.6C215.775 33.3333 215.415 32.84 214.935 32.12L210.055 24.76C209.895 24.4933 209.735 24.3333 209.575 24.28C209.442 24.2267 209.282 24.2 209.095 24.2H208.495C208.229 24.2 208.055 24.2933 207.975 24.48C207.895 24.64 207.855 24.8267 207.855 25.04V45.4H207.455V25.04C207.455 24.6133 207.535 24.3067 207.695 24.12C207.882 23.9067 208.149 23.8 208.495 23.8H209.175C209.389 23.8 209.602 23.8533 209.815 23.96C210.029 24.04 210.215 24.2133 210.375 24.48L215.255 31.92C215.709 32.6133 216.042 33.0667 216.255 33.28C216.469 33.4933 216.815 33.6 217.295 33.6ZM210.615 49C211.122 49 211.482 48.8933 211.695 48.68C211.935 48.44 212.055 48.0667 212.055 47.56V33.48L214.415 37.84C214.655 38.2933 214.935 38.6267 215.255 38.84C215.602 39.0267 216.029 39.12 216.535 39.12H218.135C218.642 39.12 219.055 39.0267 219.375 38.84C219.722 38.6267 220.015 38.2933 220.255 37.84L222.615 33.48V47.56C222.615 48.0667 222.722 48.44 222.935 48.68C223.175 48.8933 223.549 49 224.055 49H230.215C230.722 49 231.082 48.8933 231.295 48.68C231.535 48.44 231.655 48.0667 231.655 47.56V21.64C231.655 21.1333 231.535 20.7733 231.295 20.56C231.082 20.32 230.722 20.2 230.215 20.2H223.735C223.309 20.2 222.949 20.2933 222.655 20.48C222.389 20.6667 222.135 20.9733 221.895 21.4L218.335 27.92C218.202 28.16 218.082 28.3333 217.975 28.44C217.895 28.5467 217.775 28.6 217.615 28.6H217.255C217.095 28.6 216.962 28.5467 216.855 28.44C216.775 28.3333 216.669 28.16 216.535 27.92L212.935 21.4C212.695 20.9733 212.429 20.6667 212.135 20.48C211.869 20.2933 211.522 20.2 211.095 20.2H204.655C204.149 20.2 203.775 20.32 203.535 20.56C203.322 20.7733 203.215 21.1333 203.215 21.64V47.56C203.215 48.0667 203.322 48.44 203.535 48.68C203.775 48.8933 204.149 49 204.655 49H210.615ZM211.895 49.04L206.695 53.36C206.589 53.4667 206.415 53.56 206.175 53.64C205.962 53.72 205.722 53.76 205.455 53.76H199.495C198.855 53.76 198.389 53.6133 198.095 53.32C197.802 53.0267 197.655 52.56 197.655 51.92V26C197.655 25.6533 197.695 25.36 197.775 25.12C197.882 24.88 198.029 24.68 198.215 24.52L203.375 20.16C203.509 20.0533 203.682 19.9733 203.895 19.92C204.135 19.84 204.389 19.8 204.655 19.8H211.095C211.602 19.8 212.015 19.9067 212.335 20.12C212.682 20.3333 213.002 20.6933 213.295 21.2L216.015 26.2L216.375 25.56C216.482 25.3733 216.589 25.2 216.695 25.04C216.829 24.8533 216.962 24.7067 217.095 24.6L222.255 20.28C222.469 20.12 222.682 20 222.895 19.92C223.135 19.84 223.415 19.8 223.735 19.8H230.215C230.855 19.8 231.322 19.9467 231.615 20.24C231.909 20.5333 232.055 21 232.055 21.64V47.56C232.055 47.9067 232.002 48.2 231.895 48.44C231.815 48.68 231.682 48.88 231.495 49.04L226.295 53.36C226.189 53.4667 226.015 53.56 225.775 53.64C225.562 53.72 225.322 53.76 225.055 53.76H218.895C218.229 53.76 217.749 53.6133 217.455 53.32C217.189 53.0267 217.055 52.56 217.055 51.92V41.36L214.695 43.32C214.482 43.5067 214.229 43.6533 213.935 43.76C213.669 43.84 213.349 43.88 212.975 43.88H212.455V47.56C212.455 47.9067 212.402 48.2 212.295 48.44C212.215 48.68 212.082 48.88 211.895 49.04ZM256.024 53.76H237.464C236.824 53.76 236.358 53.6133 236.064 53.32C235.771 53.0267 235.624 52.56 235.624 51.92V26C235.624 25.6533 235.664 25.36 235.744 25.12C235.851 24.88 235.998 24.68 236.184 24.52L241.344 20.16C241.478 20.0533 241.651 19.9733 241.864 19.92C242.104 19.84 242.358 19.8 242.624 19.8H261.184C261.824 19.8 262.291 19.9467 262.584 20.24C262.878 20.5333 263.024 21 263.024 21.64V26.32C263.024 26.6667 262.971 26.96 262.864 27.2C262.784 27.44 262.651 27.64 262.464 27.8L259.024 30.64C259.291 30.7733 259.478 30.9733 259.584 31.24C259.718 31.5067 259.784 31.8533 259.784 32.28V36.56C259.784 36.9067 259.731 37.2 259.624 37.44C259.544 37.68 259.411 37.88 259.224 38.04L255.664 41.04H261.184C261.824 41.04 262.291 41.1867 262.584 41.48C262.878 41.7733 263.024 42.24 263.024 42.88V47.56C263.024 47.9067 262.971 48.2 262.864 48.44C262.784 48.68 262.651 48.88 262.464 49.04L257.264 53.36C257.158 53.4667 256.984 53.56 256.744 53.64C256.531 53.72 256.291 53.76 256.024 53.76ZM261.184 49C261.691 49 262.051 48.8933 262.264 48.68C262.504 48.44 262.624 48.0667 262.624 47.56V42.88C262.624 42.3733 262.504 42.0133 262.264 41.8C262.051 41.56 261.691 41.44 261.184 41.44H250.144V38H257.944C258.451 38 258.811 37.8933 259.024 37.68C259.264 37.44 259.384 37.0667 259.384 36.56V32.28C259.384 31.7733 259.264 31.4133 259.024 31.2C258.811 30.96 258.451 30.84 257.944 30.84H250.144V27.76H261.184C261.691 27.76 262.051 27.6533 262.264 27.44C262.504 27.2 262.624 26.8267 262.624 26.32V21.64C262.624 21.1333 262.504 20.7733 262.264 20.56C262.051 20.32 261.691 20.2 261.184 20.2H242.624C242.118 20.2 241.744 20.32 241.504 20.56C241.291 20.7733 241.184 21.1333 241.184 21.64V47.56C241.184 48.0667 241.291 48.44 241.504 48.68C241.744 48.8933 242.118 49 242.624 49H261.184ZM259.024 45V45.4H245.544V23.8H259.024V24.2H245.944V34.24H255.784V34.64H245.944V45H259.024Z" fill="#3B1BB9"/>
<path d="M270.94 23.68H267.22C266.72 23.68 266.36 23.57 266.14 23.35C265.94 23.13 265.84 22.78 265.84 22.3V17.56H261.25C260.77 17.56 260.42 17.46 260.2 17.26C259.98 17.04 259.87 16.68 259.87 16.18V12.76C259.87 12.5 259.9 12.28 259.96 12.1C260.04 11.92 260.15 11.77 260.29 11.65L264.16 8.38C264.26 8.3 264.39 8.24 264.55 8.2C264.73 8.14 264.92 8.11 265.12 8.11H265.84V6.64C265.84 6.38 265.87 6.16 265.93 5.98C265.99 5.8 266.08 5.66 266.2 5.56L266.23 5.53L270.13 2.26C270.23 2.18 270.36 2.12 270.52 2.08C270.68 2.02 270.87 1.99 271.09 1.99H274.81C275.29 1.99 275.64 2.1 275.86 2.32C276.08 2.54 276.19 2.89 276.19 3.37V8.11H280.78C281.26 8.11 281.61 8.22 281.83 8.44C282.05 8.64 282.16 8.99 282.16 9.49V12.91C282.16 13.17 282.12 13.39 282.04 13.57C281.98 13.75 281.88 13.9 281.74 14.02L277.87 17.29C277.75 17.37 277.61 17.44 277.45 17.5C277.29 17.54 277.11 17.56 276.91 17.56H276.19V19.03C276.19 19.29 276.15 19.51 276.07 19.69C276.01 19.87 275.91 20.02 275.77 20.14L271.9 23.41C271.78 23.49 271.64 23.55 271.48 23.59C271.32 23.65 271.14 23.68 270.94 23.68ZM275.89 19.03V13.99H280.78C281.16 13.99 281.43 13.91 281.59 13.75C281.77 13.57 281.86 13.29 281.86 12.91V9.49C281.86 9.11 281.77 8.84 281.59 8.68C281.43 8.5 281.16 8.41 280.78 8.41H275.89V3.37C275.89 2.99 275.8 2.72 275.62 2.56C275.46 2.38 275.19 2.29 274.81 2.29H271.09C270.71 2.29 270.43 2.38 270.25 2.56C270.09 2.72 270.01 2.99 270.01 3.37V8.41H265.12C264.74 8.41 264.46 8.5 264.28 8.68C264.12 8.84 264.04 9.11 264.04 9.49V12.91C264.04 13.29 264.12 13.57 264.28 13.75C264.46 13.91 264.74 13.99 265.12 13.99H270.01V19.03C270.01 19.41 270.09 19.69 270.25 19.87C270.43 20.03 270.71 20.11 271.09 20.11H274.81C275.19 20.11 275.46 20.03 275.62 19.87C275.8 19.69 275.89 19.41 275.89 19.03ZM272.8 17.41V11.35H266.74V11.05H272.8V4.99H273.1V11.05H279.16V11.35H273.1V17.41H272.8Z" fill="#5839D2"/>
</g>
<defs>
<clipPath id="clip0_14_4">
<rect width="288" height="57" fill="white"/>
</clipPath>
</defs>
</svg>
