<svg width="80" height="60" viewBox="0 0 80 60" fill="none" xmlns="http://www.w3.org/2000/svg">
<g clip-path="url(#clip0_10_5)">
<path d="M33.7881 7H76L57.0545 55.9205C57.0545 55.9205 6.53314 53.5534 10.1893 55.9205C13.8454 58.2876 33.7881 7 33.7881 7Z" fill="#D0C9EF"/>
<path d="M53.3809 45.6948C52.7861 48.73 51.3506 51.2627 49.0742 53.293C46.5723 55.5078 43.1064 56.6152 38.6768 56.6152C30.7812 56.6152 25.5723 54.5952 23.0498 50.5552C21.6348 48.3198 20.9272 45.4282 20.9272 41.8804C20.9272 39.5425 21.3989 35.4614 22.3423 29.6372C23.2856 23.813 23.7573 19.3218 23.7573 16.1636C23.7573 15.8765 24.0854 15.4663 24.7417 14.9331C25.3979 14.3999 25.9619 14.1333 26.4336 14.1333H41.1069C37.9077 29.022 36.3081 39.0503 36.3081 44.2183C36.3081 49.1606 38.7383 51.6318 43.5986 51.6318C45.4854 51.6318 47.3208 51.0884 49.105 50.0015C50.8892 48.894 52.3145 47.4585 53.3809 45.6948ZM51.2891 44.0029C51.2891 37.8506 50.9507 32.6108 50.2739 28.2837C49.6177 23.936 48.3975 19.896 46.6133 16.1636C46.6133 15.8765 46.9414 15.4663 47.5977 14.9331C48.2539 14.3999 48.8179 14.1333 49.2896 14.1333H59.687C57.2876 25.0024 55.3804 34.272 53.9653 41.9419C53.9038 42.2495 53.5552 42.6699 52.9194 43.2031C52.3042 43.7363 51.7607 44.0029 51.2891 44.0029Z" fill="black"/>
<path d="M71.5 12.0938C69.0833 11.9688 67.1875 11.901 65.8125 11.8906C65.625 13.2656 65.375 15.4375 65.0625 18.4062C65.0625 18.5417 64.8958 18.7292 64.5625 18.9688C64.2396 19.1979 63.9479 19.3125 63.6875 19.3125H62.5625C63.2292 15.0833 63.6094 12.6094 63.7031 11.8906C62.349 11.9323 60.3021 12.0781 57.5625 12.3281V11.2031C57.5625 10.9427 57.6771 10.651 57.9062 10.3281C58.1458 10.0052 58.3333 9.83854 58.4688 9.82812C60.6146 9.94271 62.4427 10.0156 63.9531 10.0469C64.0365 9.39062 64.276 7.3125 64.6719 3.8125C64.6719 3.67708 64.8333 3.49479 65.1562 3.26562C65.4896 3.02604 65.7865 2.90625 66.0469 2.90625H67.1719C66.7448 5.54167 66.375 7.92188 66.0625 10.0469C67.2604 10.0156 69.375 9.86458 72.4062 9.59375V10.7188C72.4062 10.9792 72.2865 11.276 72.0469 11.6094C71.8177 11.9323 71.6354 12.0938 71.5 12.0938Z" fill="#E57321"/>
</g>
<defs>
<clipPath id="clip0_10_5">
<rect width="80" height="60" fill="white"/>
</clipPath>
</defs>
</svg>
